# xmcd
#
# Track frame offsets:
# 150
# 23330
# 37316
# 51495
# 64505
# 81595
# 98353
# 118388
# 131037
# 144066
# 169939
# 185157
# 213806
# 231917
#
# Disc length: 3328 seconds
#
#
# Revision: 0
# Processed by: cddbd v1.5.2PL0 Copyright (c) Steve Scherf et al.
# Submitted via: FreeRIP 2.35 
#
DISCID=c70cfe0e
DTITLE=Pete Wells - Bodgie Dada
DYEAR=2008
DGENRE=Blues
TTITLE0=Bugga Burns
TTITLE1=Little Lies
TTITLE2=Why Can't I Leave You
TTITLE3=Have Mercy
TTITLE4=High Street Sneakers
TTITLE5=Sadie
TTITLE6=See and Maths
TTITLE7=Used To Do
TTITLE8=Messing With Da Blues
TTITLE9=Krupa Loop
TTITLE10=Wild Bout You
TTITLE11=King Beat
TTITLE12=Brothers In Arms
TTITLE13=Love Train
EXTD=By the late great Pete Wells - RIP
EXTT0=
EXTT1=
EXTT2=
EXTT3=
EXTT4=
EXTT5=
EXTT6=
EXTT7=
EXTT8=
EXTT9=
EXTT10=
EXTT11=
EXTT12=
EXTT13=
PLAYORDER=
